<svg width="104" height="48" viewBox="0 0 104 48" fill="none" xmlns="http://www.w3.org/2000/svg">
<path fill-rule="evenodd" clip-rule="evenodd" d="M24 48C37.2548 48 48 37.2548 48 24C48 10.7452 37.2548 0 24 0C10.7452 0 0 10.7452 0 24C0 37.2548 10.7452 48 24 48Z" fill="#24AFB5"/>
<path opacity="0.4" fill-rule="evenodd" clip-rule="evenodd" d="M16.5517 23.1724H31.4482C34.1906 23.1724 36.4138 25.3955 36.4138 28.1379V33.1034C36.4138 35.8458 34.1906 38.0689 31.4482 38.0689H16.5517C13.8093 38.0689 11.5862 35.8458 11.5862 33.1034V28.1379C11.5862 25.3955 13.8093 23.1724 16.5517 23.1724Z" fill="white"/>
<path opacity="0.6" fill-rule="evenodd" clip-rule="evenodd" d="M16.5517 16.5518H31.4482C34.1906 16.5518 36.4138 18.7749 36.4138 21.5173V26.4828C36.4138 29.2252 34.1906 31.4483 31.4482 31.4483H16.5517C13.8093 31.4483 11.5862 29.2252 11.5862 26.4828V21.5173C11.5862 18.7749 13.8093 16.5518 16.5517 16.5518Z" fill="white"/>
<path opacity="0.8" fill-rule="evenodd" clip-rule="evenodd" d="M16.5517 9.93103H31.4482C34.1906 9.93103 36.4138 12.1542 36.4138 14.8965V19.8621C36.4138 22.6044 34.1906 24.8276 31.4482 24.8276H16.5517C13.8093 24.8276 11.5862 22.6044 11.5862 19.8621V14.8965C11.5862 12.1542 13.8093 9.93103 16.5517 9.93103Z" fill="white"/>
<path d="M29.1832 16.3636V19.9432H17.8949V16.3636H29.1832ZM20.6818 11.6591H25.3097V30.0938C25.3097 30.7159 25.4034 31.1932 25.5909 31.5256C25.7869 31.8494 26.0426 32.071 26.358 32.1903C26.6733 32.3097 27.0227 32.3693 27.4062 32.3693C27.696 32.3693 27.9602 32.348 28.1989 32.3054C28.446 32.2628 28.6335 32.2244 28.7614 32.1903L29.5412 35.8082C29.294 35.8935 28.9403 35.9872 28.4801 36.0895C28.0284 36.1918 27.4744 36.2514 26.8182 36.2685C25.6591 36.3026 24.6151 36.1278 23.6861 35.7443C22.7571 35.3523 22.0199 34.7472 21.4744 33.929C20.9375 33.1108 20.6733 32.0881 20.6818 30.8608V11.6591Z" fill="#061C1D"/>
<path d="M35.4553 36.2472C34.62 36.2472 33.8757 36.1023 33.2223 35.8125C32.5689 35.517 32.0518 35.0824 31.6712 34.5085C31.2962 33.929 31.1087 33.2074 31.1087 32.3438C31.1087 31.6165 31.2422 31.0057 31.5092 30.5114C31.7763 30.017 32.1399 29.6193 32.6001 29.3182C33.0604 29.017 33.5831 28.7898 34.1683 28.6364C34.7592 28.483 35.3786 28.375 36.0263 28.3125C36.7876 28.233 37.4013 28.1591 37.8672 28.0909C38.3331 28.017 38.6712 27.9091 38.8814 27.767C39.0916 27.625 39.1967 27.4148 39.1967 27.1364V27.0852C39.1967 26.5455 39.0263 26.1278 38.6854 25.8324C38.3501 25.5369 37.8729 25.3892 37.2536 25.3892C36.6001 25.3892 36.0803 25.5341 35.6939 25.8239C35.3075 26.108 35.0518 26.4659 34.9268 26.8977L31.5689 26.625C31.7393 25.8295 32.0746 25.142 32.5746 24.5625C33.0746 23.9773 33.7195 23.5284 34.5092 23.2159C35.3047 22.8977 36.2251 22.7386 37.2706 22.7386C37.9979 22.7386 38.6939 22.8239 39.3587 22.9943C40.0291 23.1648 40.6229 23.429 41.1399 23.7869C41.6626 24.1449 42.0746 24.6051 42.3757 25.1676C42.6768 25.7244 42.8274 26.392 42.8274 27.1705V36H39.3842V34.1847H39.282C39.0717 34.5938 38.7905 34.9545 38.4382 35.267C38.0859 35.5739 37.6626 35.8153 37.1683 35.9915C36.674 36.1619 36.103 36.2472 35.4553 36.2472ZM36.495 33.7415C37.0291 33.7415 37.5007 33.6364 37.9098 33.4261C38.3189 33.2102 38.6399 32.9205 38.8729 32.5568C39.1058 32.1932 39.2223 31.7812 39.2223 31.321V29.9318C39.1087 30.0057 38.9524 30.0739 38.7536 30.1364C38.5604 30.1932 38.3416 30.2472 38.0973 30.2983C37.853 30.3437 37.6087 30.3864 37.3643 30.4261C37.12 30.4602 36.8984 30.4915 36.6996 30.5199C36.2734 30.5824 35.9013 30.6818 35.5831 30.8182C35.2649 30.9545 35.0178 31.1392 34.8416 31.3722C34.6655 31.5994 34.5774 31.8835 34.5774 32.2244C34.5774 32.7188 34.7564 33.0966 35.1143 33.358C35.478 33.6136 35.9382 33.7415 36.495 33.7415ZM45.6124 36V18.5455H49.243V25.108H49.3538C49.5129 24.7557 49.743 24.3977 50.0442 24.0341C50.351 23.6648 50.7487 23.358 51.2374 23.1136C51.7317 22.8636 52.3453 22.7386 53.0783 22.7386C54.0328 22.7386 54.9135 22.9886 55.7203 23.4886C56.5271 23.983 57.172 24.7301 57.655 25.7301C58.1379 26.7244 58.3794 27.9716 58.3794 29.4716C58.3794 30.9318 58.1436 32.1648 57.672 33.1705C57.2061 34.1705 56.5697 34.929 55.7629 35.446C54.9618 35.9574 54.0641 36.2131 53.0697 36.2131C52.3652 36.2131 51.7658 36.0966 51.2714 35.8636C50.7828 35.6307 50.3822 35.3381 50.0697 34.9858C49.7572 34.6278 49.5186 34.267 49.3538 33.9034H49.1919V36H45.6124ZM49.1663 29.4545C49.1663 30.233 49.2743 30.9119 49.4902 31.4915C49.7061 32.071 50.0186 32.5227 50.4277 32.8466C50.8368 33.1648 51.3339 33.3239 51.9192 33.3239C52.5101 33.3239 53.0101 33.1619 53.4192 32.8381C53.8283 32.5085 54.1379 32.054 54.3482 31.4744C54.5641 30.8892 54.672 30.2159 54.672 29.4545C54.672 28.6989 54.5669 28.0341 54.3567 27.4602C54.1464 26.8864 53.8368 26.4375 53.4277 26.1136C53.0186 25.7898 52.5158 25.6278 51.9192 25.6278C51.3283 25.6278 50.8283 25.7841 50.4192 26.0966C50.0158 26.4091 49.7061 26.8523 49.4902 27.4261C49.2743 28 49.1663 28.6761 49.1663 29.4545ZM60.702 36V22.9091H64.3327V36H60.702ZM62.5259 21.2216C61.9861 21.2216 61.523 21.0426 61.1366 20.6847C60.756 20.321 60.5656 19.8864 60.5656 19.3807C60.5656 18.8807 60.756 18.4517 61.1366 18.0938C61.523 17.7301 61.9861 17.5483 62.5259 17.5483C63.0656 17.5483 63.5259 17.7301 63.9065 18.0938C64.2929 18.4517 64.4861 18.8807 64.4861 19.3807C64.4861 19.8864 64.2929 20.321 63.9065 20.6847C63.5259 21.0426 63.0656 21.2216 62.5259 21.2216ZM74.1041 22.9091V25.6364H66.2206V22.9091H74.1041ZM68.0104 19.7727H71.6411V31.9773C71.6411 32.3125 71.6922 32.5739 71.7945 32.7614C71.8967 32.9432 72.0388 33.071 72.2206 33.1449C72.4081 33.2187 72.624 33.2557 72.8683 33.2557C73.0388 33.2557 73.2092 33.2415 73.3797 33.2131C73.5501 33.179 73.6808 33.1534 73.7717 33.1364L74.3428 35.8381C74.1609 35.8949 73.9053 35.9602 73.5757 36.0341C73.2462 36.1136 72.8456 36.1619 72.374 36.179C71.499 36.2131 70.732 36.0966 70.0729 35.8295C69.4195 35.5625 68.9109 35.1477 68.5473 34.5852C68.1837 34.0227 68.0047 33.3125 68.0104 32.4545V19.7727ZM80.1021 36.2472C79.2669 36.2472 78.5226 36.1023 77.8692 35.8125C77.2158 35.517 76.6987 35.0824 76.318 34.5085C75.943 33.929 75.7555 33.2074 75.7555 32.3438C75.7555 31.6165 75.8891 31.0057 76.1561 30.5114C76.4232 30.017 76.7868 29.6193 77.247 29.3182C77.7072 29.017 78.23 28.7898 78.8152 28.6364C79.4061 28.483 80.0254 28.375 80.6732 28.3125C81.4345 28.233 82.0482 28.1591 82.5141 28.0909C82.98 28.017 83.318 27.9091 83.5283 27.767C83.7385 27.625 83.8436 27.4148 83.8436 27.1364V27.0852C83.8436 26.5455 83.6732 26.1278 83.3322 25.8324C82.997 25.5369 82.5197 25.3892 81.9004 25.3892C81.247 25.3892 80.7271 25.5341 80.3408 25.8239C79.9544 26.108 79.6987 26.4659 79.5737 26.8977L76.2158 26.625C76.3862 25.8295 76.7214 25.142 77.2214 24.5625C77.7214 23.9773 78.3663 23.5284 79.1561 23.2159C79.9516 22.8977 80.872 22.7386 81.9175 22.7386C82.6447 22.7386 83.3408 22.8239 84.0055 22.9943C84.676 23.1648 85.2697 23.429 85.7868 23.7869C86.3095 24.1449 86.7214 24.6051 87.0226 25.1676C87.3237 25.7244 87.4743 26.392 87.4743 27.1705V36H84.0311V34.1847H83.9288C83.7186 34.5938 83.4374 34.9545 83.0851 35.267C82.7328 35.5739 82.3095 35.8153 81.8152 35.9915C81.3209 36.1619 80.7499 36.2472 80.1021 36.2472ZM81.1419 33.7415C81.676 33.7415 82.1476 33.6364 82.5567 33.4261C82.9658 33.2102 83.2868 32.9205 83.5197 32.5568C83.7527 32.1932 83.8692 31.7812 83.8692 31.321V29.9318C83.7555 30.0057 83.5993 30.0739 83.4004 30.1364C83.2072 30.1932 82.9885 30.2472 82.7442 30.2983C82.4999 30.3437 82.2555 30.3864 82.0112 30.4261C81.7669 30.4602 81.5453 30.4915 81.3464 30.5199C80.9203 30.5824 80.5482 30.6818 80.23 30.8182C79.9118 30.9545 79.6646 31.1392 79.4885 31.3722C79.3124 31.5994 79.2243 31.8835 79.2243 32.2244C79.2243 32.7188 79.4033 33.0966 79.7612 33.358C80.1249 33.6136 80.5851 33.7415 81.1419 33.7415ZM90.2592 36V18.5455H93.8899V25.108H94.0007C94.1598 24.7557 94.3899 24.3977 94.6911 24.0341C94.9979 23.6648 95.3956 23.358 95.8842 23.1136C96.3786 22.8636 96.9922 22.7386 97.7251 22.7386C98.6797 22.7386 99.5604 22.9886 100.367 23.4886C101.174 23.983 101.819 24.7301 102.302 25.7301C102.785 26.7244 103.026 27.9716 103.026 29.4716C103.026 30.9318 102.79 32.1648 102.319 33.1705C101.853 34.1705 101.217 34.929 100.41 35.446C99.6087 35.9574 98.7109 36.2131 97.7166 36.2131C97.0121 36.2131 96.4126 36.0966 95.9183 35.8636C95.4297 35.6307 95.0291 35.3381 94.7166 34.9858C94.4041 34.6278 94.1655 34.267 94.0007 33.9034H93.8388V36H90.2592ZM93.8132 29.4545C93.8132 30.233 93.9212 30.9119 94.1371 31.4915C94.353 32.071 94.6655 32.5227 95.0746 32.8466C95.4837 33.1648 95.9808 33.3239 96.5661 33.3239C97.157 33.3239 97.657 33.1619 98.0661 32.8381C98.4751 32.5085 98.7848 32.054 98.995 31.4744C99.2109 30.8892 99.3189 30.2159 99.3189 29.4545C99.3189 28.6989 99.2138 28.0341 99.0036 27.4602C98.7933 26.8864 98.4837 26.4375 98.0746 26.1136C97.6655 25.7898 97.1626 25.6278 96.5661 25.6278C95.9751 25.6278 95.4751 25.7841 95.0661 26.0966C94.6626 26.4091 94.353 26.8523 94.1371 27.4261C93.9212 28 93.8132 28.6761 93.8132 29.4545Z" fill="#061C1D"/>
</svg>
