<svg width="48" height="48" viewBox="0 0 48 48" fill="none" xmlns="http://www.w3.org/2000/svg">
<path fill-rule="evenodd" clip-rule="evenodd" d="M24 48C37.2548 48 48 37.2548 48 24C48 10.7452 37.2548 0 24 0C10.7452 0 0 10.7452 0 24C0 37.2548 10.7452 48 24 48Z" fill="#24AFB5"/>
<path opacity="0.4" fill-rule="evenodd" clip-rule="evenodd" d="M16.5517 23.1724H31.4482C34.1906 23.1724 36.4138 25.3955 36.4138 28.1379V33.1034C36.4138 35.8458 34.1906 38.0689 31.4482 38.0689H16.5517C13.8093 38.0689 11.5862 35.8458 11.5862 33.1034V28.1379C11.5862 25.3955 13.8093 23.1724 16.5517 23.1724Z" fill="white"/>
<path opacity="0.6" fill-rule="evenodd" clip-rule="evenodd" d="M16.5517 16.5518H31.4482C34.1906 16.5518 36.4138 18.7749 36.4138 21.5173V26.4828C36.4138 29.2252 34.1906 31.4483 31.4482 31.4483H16.5517C13.8093 31.4483 11.5862 29.2252 11.5862 26.4828V21.5173C11.5862 18.7749 13.8093 16.5518 16.5517 16.5518Z" fill="white"/>
<path opacity="0.8" fill-rule="evenodd" clip-rule="evenodd" d="M16.5517 9.93103H31.4482C34.1906 9.93103 36.4138 12.1542 36.4138 14.8965V19.8621C36.4138 22.6044 34.1906 24.8276 31.4482 24.8276H16.5517C13.8093 24.8276 11.5862 22.6044 11.5862 19.8621V14.8965C11.5862 12.1542 13.8093 9.93103 16.5517 9.93103Z" fill="white"/>
<path d="M29.1832 16.3636V19.9432H17.8949V16.3636H29.1832ZM20.6818 11.6591H25.3097V30.0938C25.3097 30.7159 25.4034 31.1932 25.5909 31.5256C25.7869 31.8494 26.0426 32.071 26.358 32.1903C26.6733 32.3097 27.0227 32.3693 27.4062 32.3693C27.696 32.3693 27.9602 32.348 28.1989 32.3054C28.446 32.2628 28.6335 32.2244 28.7614 32.1903L29.5412 35.8082C29.294 35.8935 28.9403 35.9872 28.4801 36.0895C28.0284 36.1918 27.4744 36.2514 26.8182 36.2685C25.6591 36.3026 24.6151 36.1278 23.6861 35.7443C22.7571 35.3523 22.0199 34.7472 21.4744 33.929C20.9375 33.1108 20.6733 32.0881 20.6818 30.8608V11.6591Z" fill="#0E4143"/>
</svg>
